<svg xmlns="http://www.w3.org/2000/svg" viewBox="0 0 32 32" width="32" height="32">
  <defs>
    <radialGradient id="kiwiGrad" cx="50%" cy="50%" r="50%" fx="50%" fy="50%">
      <stop offset="0%" stop-color="#ffffff" />
      <stop offset="45%" stop-color="#a3e635" />
      <stop offset="85%" stop-color="#8ce62c" />
      <stop offset="100%" stop-color="#4d7c0f" />
    </radialGradient>
  </defs>
  <!-- Outer Brown Fuzzy Skin Ring -->
  <circle cx="16" cy="16" r="15" fill="#3f2e1e" stroke="#2a1f14" stroke-width="1"/>
  <!-- Green Flesh -->
  <circle cx="16" cy="16" r="13" fill="url(#kiwiGrad)" />
  <!-- Center Core -->
  <ellipse cx="16" cy="16" rx="4.5" ry="3.5" transform="rotate(-15 16 16)" fill="#fefefe" opacity="0.95" />
  
  <!-- Radiating Seed Rays -->
  <g stroke="#ffffff" stroke-width="0.7" opacity="0.6">
    <line x1="16" y1="16" x2="16" y2="7" />
    <line x1="16" y1="16" x2="16" y2="25" />
    <line x1="16" y1="16" x2="7" y2="16" />
    <line x1="16" y1="16" x2="25" y2="16" />
    
    <line x1="16" y1="16" x2="10" y2="10" />
    <line x1="16" y1="16" x2="22" y2="22" />
    <line x1="16" y1="16" x2="10" y2="22" />
    <line x1="16" y1="16" x2="22" y2="10" />

    <line x1="16" y1="16" x2="13" y2="8" />
    <line x1="16" y1="16" x2="19" y2="24" />
    <line x1="16" y1="16" x2="19" y2="8" />
    <line x1="16" y1="16" x2="13" y2="24" />

    <line x1="16" y1="16" x2="8" y2="13" />
    <line x1="16" y1="16" x2="24" y2="19" />
    <line x1="16" y1="16" x2="8" y2="19" />
    <line x1="16" y1="16" x2="24" y2="13" />
  </g>

  <!-- Seed Dots (Tiny black circles orbiting the core) -->
  <g fill="#0b0f19">
    <circle cx="16" cy="11.5" r="0.9" />
    <circle cx="16" cy="20.5" r="0.9" />
    <circle cx="11.5" cy="16" r="0.9" />
    <circle cx="20.5" cy="16" r="0.9" />
    
    <circle cx="12.5" cy="12.5" r="0.9" />
    <circle cx="19.5" cy="19.5" r="0.9" />
    <circle cx="12.5" cy="19.5" r="0.9" />
    <circle cx="19.5" cy="12.5" r="0.9" />

    <circle cx="14" cy="11" r="0.9" />
    <circle cx="18" cy="21" r="0.9" />
    <circle cx="18" cy="11" r="0.9" />
    <circle cx="14" cy="21" r="0.9" />

    <circle cx="11" cy="14" r="0.9" />
    <circle cx="21" cy="18" r="0.9" />
    <circle cx="11" cy="18" r="0.9" />
    <circle cx="21" cy="14" r="0.9" />
  </g>
</svg>
