<svg xmlns="http://www.w3.org/2000/svg" viewBox="0 0 32 32" width="32" height="32" shape-rendering="crispEdges">
  <rect width="32" height="32" rx="7" fill="#0B131A"/>
  <rect width="30" height="30" x="1" y="1" rx="6" fill="none" stroke="#93C645" stroke-width="1" stroke-opacity="0.3"/>
  <g transform="translate(8, 8)">
    <!-- Body Greens -->
    <rect x="5" y="2" width="5" height="1" fill="#88BC38" />
    <rect x="3" y="3" width="8" height="1" fill="#93C645" />
    <rect x="2" y="4" width="9" height="1" fill="#93C645" />
    <rect x="2" y="5" width="9" height="1" fill="#93C645" />
    <rect x="1" y="6" width="10" height="1" fill="#93C645" />
    <rect x="1" y="7" width="10" height="1" fill="#93C645" />
    <rect x="2" y="8" width="9" height="1" fill="#88BC38" />
    <rect x="2" y="9" width="9" height="1" fill="#78A832" />
    <rect x="3" y="10" width="7" height="1" fill="#6A962A" />
    <rect x="4" y="11" width="5" height="1" fill="#5A8222" />
    <!-- Eye -->
    <rect x="7" y="4" width="2" height="2" fill="#111816" />
    <rect x="7" y="4" width="1" height="1" fill="#FFFFFF" />
    <!-- Beak -->
    <rect x="11" y="5" width="3" height="2" fill="#FFAA28" />
    <rect x="14" y="6" width="1" height="1" fill="#E89115" />
    <!-- Feet -->
    <rect x="4" y="12" width="2" height="2" fill="#FFAA28" />
    <rect x="3" y="13" width="3" height="1" fill="#FFAA28" />
    <rect x="8" y="12" width="2" height="2" fill="#FFAA28" />
    <rect x="7" y="13" width="3" height="1" fill="#FFAA28" />
  </g>
</svg>
